<svg xmlns="http://www.w3.org/2000/svg" xmlns:xlink="http://www.w3.org/1999/xlink" width="500" zoomAndPan="magnify" viewBox="0 0 375 374.999991" height="500" preserveAspectRatio="xMidYMid meet" version="1.0"><defs><g/><clipPath id="8e5c929bb9"><path d="M 102.5 203.25 L 272.75 203.25 L 272.75 222 L 102.5 222 Z M 102.5 203.25 " clip-rule="nonzero"/></clipPath></defs><g clip-path="url(#8e5c929bb9)"><path fill="#ffda10" d="M 102.5 127.753906 L 272.75 127.753906 L 272.75 298.003906 L 102.5 298.003906 Z M 102.5 127.753906 " fill-opacity="1" fill-rule="nonzero"/></g><g fill="#ffffff" fill-opacity="1"><g transform="translate(103.483065, 193.993934)"><g><path d="M 28.203125 -21.53125 C 30.503906 -19.007812 31.65625 -15.925781 31.65625 -12.28125 C 31.65625 -8.632812 30.503906 -5.554688 28.203125 -3.046875 C 25.898438 -0.535156 22.972656 0.71875 19.421875 0.71875 C 16.160156 0.71875 13.472656 -0.445312 11.359375 -2.78125 L 11.265625 -2.78125 L 11.265625 0 L 2.875 0 L 2.875 -41.234375 L 11.359375 -41.234375 L 11.359375 -22.25 C 13.472656 -24.289062 16.160156 -25.3125 19.421875 -25.3125 C 22.972656 -25.3125 25.898438 -24.050781 28.203125 -21.53125 Z M 21.046875 -8.125 C 22.109375 -9.195312 22.640625 -10.578125 22.640625 -12.265625 C 22.640625 -13.960938 22.085938 -15.351562 20.984375 -16.4375 C 19.878906 -17.53125 18.507812 -18.078125 16.875 -18.078125 C 15.28125 -18.078125 13.929688 -17.53125 12.828125 -16.4375 C 11.722656 -15.351562 11.171875 -13.96875 11.171875 -12.28125 C 11.171875 -10.613281 11.707031 -9.234375 12.78125 -8.140625 C 13.851562 -7.054688 15.21875 -6.515625 16.875 -6.515625 C 18.601562 -6.515625 19.992188 -7.050781 21.046875 -8.125 Z M 21.046875 -8.125 "/></g></g></g><g fill="#ffffff" fill-opacity="1"><g transform="translate(136.22707, 193.993934)"><g><path d="M 4.5625 -3.046875 C 2.257812 -5.554688 1.109375 -8.632812 1.109375 -12.28125 C 1.109375 -15.925781 2.257812 -19.007812 4.5625 -21.53125 C 6.863281 -24.050781 9.785156 -25.3125 13.328125 -25.3125 C 16.585938 -25.3125 19.273438 -24.289062 21.390625 -22.25 L 21.390625 -24.59375 L 29.875 -24.59375 L 29.875 0 L 21.484375 0 L 21.484375 -2.78125 L 21.390625 -2.78125 C 19.273438 -0.445312 16.585938 0.71875 13.328125 0.71875 C 9.785156 0.71875 6.863281 -0.535156 4.5625 -3.046875 Z M 11.765625 -16.4375 C 10.671875 -15.351562 10.125 -13.960938 10.125 -12.265625 C 10.125 -10.578125 10.648438 -9.195312 11.703125 -8.125 C 12.753906 -7.050781 14.144531 -6.515625 15.875 -6.515625 C 17.53125 -6.515625 18.894531 -7.054688 19.96875 -8.140625 C 21.039062 -9.234375 21.578125 -10.613281 21.578125 -12.28125 C 21.578125 -13.96875 21.023438 -15.351562 19.921875 -16.4375 C 18.816406 -17.53125 17.46875 -18.078125 15.875 -18.078125 C 14.238281 -18.078125 12.867188 -17.53125 11.765625 -16.4375 Z M 11.765625 -16.4375 "/></g></g></g><g fill="#ffffff" fill-opacity="1"><g transform="translate(168.971074, 193.993934)"><g><path d="M 13.578125 -25.3125 C 14.984375 -25.3125 16.367188 -25.148438 17.734375 -24.828125 C 19.109375 -24.515625 20.132812 -24.195312 20.8125 -23.875 L 21.8125 -23.40625 L 19.03125 -17.84375 C 17.113281 -18.863281 15.296875 -19.375 13.578125 -19.375 C 12.609375 -19.375 11.925781 -19.269531 11.53125 -19.0625 C 11.132812 -18.851562 10.9375 -18.460938 10.9375 -17.890625 C 10.9375 -17.753906 10.953125 -17.625 10.984375 -17.5 C 11.015625 -17.375 11.078125 -17.253906 11.171875 -17.140625 C 11.265625 -17.023438 11.351562 -16.925781 11.4375 -16.84375 C 11.519531 -16.769531 11.65625 -16.6875 11.84375 -16.59375 C 12.03125 -16.5 12.179688 -16.425781 12.296875 -16.375 C 12.410156 -16.320312 12.59375 -16.25 12.84375 -16.15625 C 13.101562 -16.0625 13.296875 -15.988281 13.421875 -15.9375 C 13.554688 -15.894531 13.773438 -15.820312 14.078125 -15.71875 C 14.378906 -15.625 14.609375 -15.5625 14.765625 -15.53125 C 15.753906 -15.25 16.617188 -14.929688 17.359375 -14.578125 C 18.097656 -14.222656 18.875 -13.742188 19.6875 -13.140625 C 20.5 -12.535156 21.128906 -11.769531 21.578125 -10.84375 C 22.023438 -9.914062 22.25 -8.859375 22.25 -7.671875 C 22.25 -2.078125 18.363281 0.71875 10.59375 0.71875 C 8.832031 0.71875 7.160156 0.445312 5.578125 -0.09375 C 4.003906 -0.632812 2.863281 -1.175781 2.15625 -1.71875 L 1.109375 -2.59375 L 4.5625 -8.390625 C 4.8125 -8.171875 5.144531 -7.90625 5.5625 -7.59375 C 5.976562 -7.289062 6.726562 -6.875 7.8125 -6.34375 C 8.90625 -5.820312 9.847656 -5.5625 10.640625 -5.5625 C 12.398438 -5.5625 13.28125 -6.15625 13.28125 -7.34375 C 13.28125 -7.882812 13.054688 -8.304688 12.609375 -8.609375 C 12.160156 -8.910156 11.398438 -9.253906 10.328125 -9.640625 C 9.265625 -10.023438 8.425781 -10.375 7.8125 -10.6875 C 6.28125 -11.488281 5.066406 -12.390625 4.171875 -13.390625 C 3.273438 -14.398438 2.828125 -15.738281 2.828125 -17.40625 C 2.828125 -19.894531 3.789062 -21.832031 5.71875 -23.21875 C 7.65625 -24.613281 10.273438 -25.3125 13.578125 -25.3125 Z M 13.578125 -25.3125 "/></g></g></g><g fill="#ffffff" fill-opacity="1"><g transform="translate(192.558262, 193.993934)"><g><path d="M 26.65625 -24.59375 L 14.484375 -6.46875 L 25.703125 -6.46875 L 25.703125 0 L 0.234375 0 L 12.421875 -18.125 L 2.25 -18.125 L 2.25 -24.59375 Z M 26.65625 -24.59375 "/></g></g></g><g fill="#ffffff" fill-opacity="1"><g transform="translate(219.453409, 193.993934)"><g><path d="M 4.3125 -24.59375 L 4.3125 -33.765625 L 12.796875 -33.765625 L 12.796875 -24.59375 L 17.984375 -24.59375 L 17.984375 -18.125 L 12.796875 -18.125 L 12.796875 -10.3125 C 12.796875 -8.039062 13.4375 -6.90625 14.71875 -6.90625 C 15.039062 -6.90625 15.375 -6.96875 15.71875 -7.09375 C 16.070312 -7.21875 16.347656 -7.347656 16.546875 -7.484375 L 16.828125 -7.671875 L 18.9375 -0.8125 C 17.113281 0.207031 15.035156 0.71875 12.703125 0.71875 C 11.109375 0.71875 9.734375 0.441406 8.578125 -0.109375 C 7.429688 -0.671875 6.5625 -1.421875 5.96875 -2.359375 C 5.375 -3.304688 4.945312 -4.300781 4.6875 -5.34375 C 4.4375 -6.382812 4.3125 -7.492188 4.3125 -8.671875 L 4.3125 -18.125 L 0.765625 -18.125 L 0.765625 -24.59375 Z M 4.3125 -24.59375 "/></g></g></g><g fill="#ffffff" fill-opacity="1"><g transform="translate(238.390279, 193.993934)"><g><path d="M 4.5625 -3.046875 C 2.257812 -5.554688 1.109375 -8.632812 1.109375 -12.28125 C 1.109375 -15.925781 2.257812 -19.007812 4.5625 -21.53125 C 6.863281 -24.050781 9.785156 -25.3125 13.328125 -25.3125 C 16.585938 -25.3125 19.273438 -24.289062 21.390625 -22.25 L 21.390625 -24.59375 L 29.875 -24.59375 L 29.875 0 L 21.484375 0 L 21.484375 -2.78125 L 21.390625 -2.78125 C 19.273438 -0.445312 16.585938 0.71875 13.328125 0.71875 C 9.785156 0.71875 6.863281 -0.535156 4.5625 -3.046875 Z M 11.765625 -16.4375 C 10.671875 -15.351562 10.125 -13.960938 10.125 -12.265625 C 10.125 -10.578125 10.648438 -9.195312 11.703125 -8.125 C 12.753906 -7.050781 14.144531 -6.515625 15.875 -6.515625 C 17.53125 -6.515625 18.894531 -7.054688 19.96875 -8.140625 C 21.039062 -9.234375 21.578125 -10.613281 21.578125 -12.28125 C 21.578125 -13.96875 21.023438 -15.351562 19.921875 -16.4375 C 18.816406 -17.53125 17.46875 -18.078125 15.875 -18.078125 C 14.238281 -18.078125 12.867188 -17.53125 11.765625 -16.4375 Z M 11.765625 -16.4375 "/></g></g></g><g fill="#333033" fill-opacity="1"><g transform="translate(113.990577, 219.341045)"><g><path d="M 5.984375 -7.890625 C 5.941406 -7.828125 5.894531 -7.78125 5.84375 -7.75 C 5.800781 -7.71875 5.75 -7.703125 5.6875 -7.703125 C 5.613281 -7.703125 5.523438 -7.738281 5.421875 -7.8125 C 5.328125 -7.882812 5.203125 -7.960938 5.046875 -8.046875 C 4.898438 -8.140625 4.71875 -8.222656 4.5 -8.296875 C 4.289062 -8.367188 4.039062 -8.40625 3.75 -8.40625 C 3.457031 -8.40625 3.203125 -8.367188 2.984375 -8.296875 C 2.773438 -8.222656 2.597656 -8.117188 2.453125 -7.984375 C 2.304688 -7.859375 2.195312 -7.707031 2.125 -7.53125 C 2.050781 -7.351562 2.015625 -7.160156 2.015625 -6.953125 C 2.015625 -6.691406 2.078125 -6.472656 2.203125 -6.296875 C 2.328125 -6.128906 2.492188 -5.984375 2.703125 -5.859375 C 2.921875 -5.742188 3.160156 -5.640625 3.421875 -5.546875 C 3.691406 -5.460938 3.96875 -5.367188 4.25 -5.265625 C 4.53125 -5.171875 4.804688 -5.0625 5.078125 -4.9375 C 5.347656 -4.820312 5.585938 -4.671875 5.796875 -4.484375 C 6.003906 -4.304688 6.171875 -4.082031 6.296875 -3.8125 C 6.429688 -3.550781 6.5 -3.226562 6.5 -2.84375 C 6.5 -2.4375 6.425781 -2.050781 6.28125 -1.6875 C 6.144531 -1.332031 5.941406 -1.019531 5.671875 -0.75 C 5.410156 -0.488281 5.082031 -0.28125 4.6875 -0.125 C 4.300781 0.03125 3.859375 0.109375 3.359375 0.109375 C 2.753906 0.109375 2.203125 0 1.703125 -0.21875 C 1.203125 -0.445312 0.78125 -0.742188 0.4375 -1.109375 L 0.796875 -1.71875 C 0.828125 -1.769531 0.867188 -1.8125 0.921875 -1.84375 C 0.972656 -1.875 1.03125 -1.890625 1.09375 -1.890625 C 1.144531 -1.890625 1.207031 -1.863281 1.28125 -1.8125 C 1.351562 -1.769531 1.4375 -1.710938 1.53125 -1.640625 C 1.625 -1.578125 1.726562 -1.503906 1.84375 -1.421875 C 1.957031 -1.335938 2.085938 -1.257812 2.234375 -1.1875 C 2.390625 -1.113281 2.5625 -1.054688 2.75 -1.015625 C 2.945312 -0.972656 3.164062 -0.953125 3.40625 -0.953125 C 3.707031 -0.953125 3.972656 -0.988281 4.203125 -1.0625 C 4.441406 -1.144531 4.640625 -1.257812 4.796875 -1.40625 C 4.960938 -1.5625 5.085938 -1.742188 5.171875 -1.953125 C 5.265625 -2.160156 5.3125 -2.394531 5.3125 -2.65625 C 5.3125 -2.9375 5.242188 -3.164062 5.109375 -3.34375 C 4.984375 -3.53125 4.816406 -3.679688 4.609375 -3.796875 C 4.398438 -3.921875 4.160156 -4.023438 3.890625 -4.109375 C 3.617188 -4.203125 3.34375 -4.289062 3.0625 -4.375 C 2.789062 -4.46875 2.519531 -4.570312 2.25 -4.6875 C 1.976562 -4.800781 1.738281 -4.953125 1.53125 -5.140625 C 1.320312 -5.328125 1.148438 -5.5625 1.015625 -5.84375 C 0.890625 -6.125 0.828125 -6.472656 0.828125 -6.890625 C 0.828125 -7.222656 0.890625 -7.539062 1.015625 -7.84375 C 1.148438 -8.15625 1.335938 -8.429688 1.578125 -8.671875 C 1.828125 -8.910156 2.128906 -9.101562 2.484375 -9.25 C 2.847656 -9.394531 3.265625 -9.46875 3.734375 -9.46875 C 4.253906 -9.46875 4.726562 -9.382812 5.15625 -9.21875 C 5.582031 -9.050781 5.960938 -8.8125 6.296875 -8.5 Z M 5.984375 -7.890625 "/></g></g></g><g fill="#333033" fill-opacity="1"><g transform="translate(123.946571, 219.341045)"><g><path d="M 2.453125 -5.25 L 2.9375 -5.25 C 3.101562 -5.25 3.234375 -5.269531 3.328125 -5.3125 C 3.429688 -5.351562 3.523438 -5.425781 3.609375 -5.53125 L 6.71875 -9.0625 C 6.800781 -9.175781 6.890625 -9.253906 6.984375 -9.296875 C 7.085938 -9.335938 7.207031 -9.359375 7.34375 -9.359375 L 8.421875 -9.359375 L 4.859375 -5.328125 C 4.765625 -5.222656 4.675781 -5.132812 4.59375 -5.0625 C 4.519531 -5 4.4375 -4.945312 4.34375 -4.90625 C 4.457031 -4.863281 4.5625 -4.804688 4.65625 -4.734375 C 4.757812 -4.660156 4.851562 -4.5625 4.9375 -4.4375 L 8.671875 0 L 7.5625 0 C 7.488281 0 7.421875 -0.00390625 7.359375 -0.015625 C 7.296875 -0.0234375 7.242188 -0.0390625 7.203125 -0.0625 C 7.160156 -0.09375 7.125 -0.125 7.09375 -0.15625 C 7.0625 -0.1875 7.03125 -0.222656 7 -0.265625 L 3.765625 -3.984375 C 3.679688 -4.085938 3.585938 -4.160156 3.484375 -4.203125 C 3.390625 -4.253906 3.238281 -4.28125 3.03125 -4.28125 L 2.453125 -4.28125 L 2.453125 0 L 1.1875 0 L 1.1875 -9.359375 L 2.453125 -9.359375 Z M 2.453125 -5.25 "/></g></g></g><g fill="#333033" fill-opacity="1"><g transform="translate(135.469147, 219.341045)"><g><path d="M 6.6875 -1.0625 L 6.6875 0 L 1.390625 0 L 1.390625 -3.609375 L 0.15625 -2.984375 L 0.15625 -3.859375 C 0.15625 -3.984375 0.207031 -4.070312 0.3125 -4.125 L 1.390625 -4.6875 L 1.390625 -9.359375 L 2.640625 -9.359375 L 2.640625 -5.25 L 5.15625 -6.53125 L 5.15625 -5.6875 C 5.15625 -5.539062 5.097656 -5.441406 4.984375 -5.390625 L 2.640625 -4.1875 L 2.640625 -1.0625 Z M 6.6875 -1.0625 "/></g></g></g><g fill="#333033" fill-opacity="1"><g transform="translate(145.235847, 219.341045)"><g><path d="M 6.171875 -3.46875 L 4.703125 -7.28125 C 4.648438 -7.394531 4.597656 -7.523438 4.546875 -7.671875 C 4.503906 -7.828125 4.460938 -7.988281 4.421875 -8.15625 C 4.328125 -7.800781 4.234375 -7.507812 4.140625 -7.28125 L 2.671875 -3.46875 Z M 8.796875 0 L 7.828125 0 C 7.710938 0 7.617188 -0.0234375 7.546875 -0.078125 C 7.484375 -0.140625 7.429688 -0.210938 7.390625 -0.296875 L 6.515625 -2.5625 L 2.3125 -2.5625 L 1.4375 -0.296875 C 1.414062 -0.222656 1.367188 -0.15625 1.296875 -0.09375 C 1.222656 -0.03125 1.128906 0 1.015625 0 L 0.046875 0 L 3.78125 -9.359375 L 5.0625 -9.359375 Z M 8.796875 0 "/></g></g></g><g fill="#333033" fill-opacity="1"><g transform="translate(156.947718, 219.341045)"><g><path d="M 9.3125 -4.671875 C 9.3125 -3.972656 9.195312 -3.335938 8.96875 -2.765625 C 8.75 -2.191406 8.4375 -1.695312 8.03125 -1.28125 C 7.625 -0.875 7.132812 -0.554688 6.5625 -0.328125 C 6 -0.109375 5.375 0 4.6875 0 L 1.1875 0 L 1.1875 -9.359375 L 4.6875 -9.359375 C 5.375 -9.359375 6 -9.242188 6.5625 -9.015625 C 7.132812 -8.796875 7.625 -8.476562 8.03125 -8.0625 C 8.4375 -7.65625 8.75 -7.164062 8.96875 -6.59375 C 9.195312 -6.019531 9.3125 -5.378906 9.3125 -4.671875 Z M 8 -4.671875 C 8 -5.242188 7.921875 -5.753906 7.765625 -6.203125 C 7.609375 -6.660156 7.382812 -7.046875 7.09375 -7.359375 C 6.8125 -7.679688 6.46875 -7.921875 6.0625 -8.078125 C 5.65625 -8.242188 5.195312 -8.328125 4.6875 -8.328125 L 2.46875 -8.328125 L 2.46875 -1.03125 L 4.6875 -1.03125 C 5.195312 -1.03125 5.65625 -1.109375 6.0625 -1.265625 C 6.46875 -1.429688 6.8125 -1.671875 7.09375 -1.984375 C 7.382812 -2.296875 7.609375 -2.675781 7.765625 -3.125 C 7.921875 -3.582031 8 -4.097656 8 -4.671875 Z M 8 -4.671875 "/></g></g></g><g fill="#333033" fill-opacity="1"><g transform="translate(169.749662, 219.341045)"><g/></g></g><g fill="#333033" fill-opacity="1"><g transform="translate(175.96544, 219.341045)"><g><path d="M 13.328125 -9.359375 L 10.40625 0 L 9.265625 0 L 6.890625 -7.140625 C 6.867188 -7.210938 6.847656 -7.285156 6.828125 -7.359375 C 6.816406 -7.441406 6.796875 -7.523438 6.765625 -7.609375 C 6.742188 -7.523438 6.722656 -7.441406 6.703125 -7.359375 C 6.679688 -7.285156 6.660156 -7.210938 6.640625 -7.140625 L 4.265625 0 L 3.125 0 L 0.203125 -9.359375 L 1.25 -9.359375 C 1.363281 -9.359375 1.457031 -9.328125 1.53125 -9.265625 C 1.613281 -9.210938 1.664062 -9.144531 1.6875 -9.0625 L 3.625 -2.546875 C 3.644531 -2.429688 3.671875 -2.304688 3.703125 -2.171875 C 3.734375 -2.035156 3.757812 -1.894531 3.78125 -1.75 C 3.8125 -1.894531 3.84375 -2.035156 3.875 -2.171875 C 3.914062 -2.316406 3.953125 -2.441406 3.984375 -2.546875 L 6.1875 -9.0625 C 6.21875 -9.132812 6.269531 -9.203125 6.34375 -9.265625 C 6.414062 -9.328125 6.507812 -9.359375 6.625 -9.359375 L 6.984375 -9.359375 C 7.097656 -9.359375 7.191406 -9.328125 7.265625 -9.265625 C 7.335938 -9.210938 7.390625 -9.144531 7.421875 -9.0625 L 9.609375 -2.546875 C 9.648438 -2.441406 9.6875 -2.320312 9.71875 -2.1875 C 9.75 -2.050781 9.78125 -1.914062 9.8125 -1.78125 C 9.832031 -1.914062 9.851562 -2.050781 9.875 -2.1875 C 9.90625 -2.320312 9.9375 -2.441406 9.96875 -2.546875 L 11.90625 -9.0625 C 11.9375 -9.132812 11.988281 -9.203125 12.0625 -9.265625 C 12.132812 -9.328125 12.226562 -9.359375 12.34375 -9.359375 Z M 13.328125 -9.359375 "/></g></g></g><g fill="#333033" fill-opacity="1"><g transform="translate(192.357476, 219.341045)"><g><path d="M 7.09375 1.890625 C 6.957031 1.992188 6.785156 2.078125 6.578125 2.140625 C 6.378906 2.203125 6.171875 2.234375 5.953125 2.234375 C 5.566406 2.234375 5.265625 2.144531 5.046875 1.96875 C 4.828125 1.800781 4.71875 1.570312 4.71875 1.28125 C 4.71875 1.039062 4.800781 0.804688 4.96875 0.578125 C 5.144531 0.359375 5.363281 0.164062 5.625 0 L 1.1875 0 L 1.1875 -9.359375 L 6.96875 -9.359375 L 6.96875 -8.328125 L 2.46875 -8.328125 L 2.46875 -5.21875 L 6.109375 -5.21875 L 6.109375 -4.21875 L 2.46875 -4.21875 L 2.46875 -1.03125 L 6.96875 -1.03125 L 6.96875 0 L 6.375 0 C 6.28125 0.0507812 6.1875 0.109375 6.09375 0.171875 C 6.007812 0.242188 5.925781 0.320312 5.84375 0.40625 C 5.769531 0.488281 5.707031 0.582031 5.65625 0.6875 C 5.613281 0.789062 5.59375 0.894531 5.59375 1 C 5.59375 1.164062 5.644531 1.296875 5.75 1.390625 C 5.863281 1.484375 6.007812 1.53125 6.1875 1.53125 C 6.289062 1.53125 6.375 1.519531 6.4375 1.5 C 6.5 1.488281 6.550781 1.472656 6.59375 1.453125 C 6.644531 1.441406 6.679688 1.425781 6.703125 1.40625 C 6.734375 1.382812 6.757812 1.375 6.78125 1.375 C 6.8125 1.375 6.835938 1.382812 6.859375 1.40625 C 6.878906 1.425781 6.894531 1.445312 6.90625 1.46875 Z M 7.09375 1.890625 "/></g></g></g><g fill="#333033" fill-opacity="1"><g transform="translate(202.770386, 219.341045)"><g><path d="M 8.796875 -4.5 L 8.796875 -0.90625 C 8.328125 -0.5625 7.820312 -0.304688 7.28125 -0.140625 C 6.75 0.0234375 6.164062 0.109375 5.53125 0.109375 C 4.78125 0.109375 4.101562 -0.00390625 3.5 -0.234375 C 2.894531 -0.472656 2.378906 -0.800781 1.953125 -1.21875 C 1.523438 -1.644531 1.191406 -2.148438 0.953125 -2.734375 C 0.722656 -3.328125 0.609375 -3.972656 0.609375 -4.671875 C 0.609375 -5.390625 0.71875 -6.039062 0.9375 -6.625 C 1.164062 -7.21875 1.488281 -7.722656 1.90625 -8.140625 C 2.320312 -8.554688 2.820312 -8.878906 3.40625 -9.109375 C 4 -9.347656 4.664062 -9.46875 5.40625 -9.46875 C 5.769531 -9.46875 6.109375 -9.4375 6.421875 -9.375 C 6.742188 -9.320312 7.039062 -9.242188 7.3125 -9.140625 C 7.582031 -9.046875 7.832031 -8.925781 8.0625 -8.78125 C 8.289062 -8.632812 8.507812 -8.46875 8.71875 -8.28125 L 8.359375 -7.703125 C 8.296875 -7.617188 8.21875 -7.5625 8.125 -7.53125 C 8.039062 -7.507812 7.945312 -7.535156 7.84375 -7.609375 C 7.738281 -7.660156 7.617188 -7.726562 7.484375 -7.8125 C 7.347656 -7.90625 7.179688 -7.992188 6.984375 -8.078125 C 6.785156 -8.160156 6.554688 -8.226562 6.296875 -8.28125 C 6.035156 -8.332031 5.722656 -8.359375 5.359375 -8.359375 C 4.835938 -8.359375 4.363281 -8.269531 3.9375 -8.09375 C 3.507812 -7.925781 3.144531 -7.679688 2.84375 -7.359375 C 2.539062 -7.046875 2.304688 -6.660156 2.140625 -6.203125 C 1.984375 -5.753906 1.90625 -5.242188 1.90625 -4.671875 C 1.90625 -4.085938 1.988281 -3.5625 2.15625 -3.09375 C 2.320312 -2.632812 2.5625 -2.242188 2.875 -1.921875 C 3.1875 -1.597656 3.5625 -1.347656 4 -1.171875 C 4.445312 -1.003906 4.945312 -0.921875 5.5 -0.921875 C 5.9375 -0.921875 6.320312 -0.96875 6.65625 -1.0625 C 7 -1.164062 7.332031 -1.300781 7.65625 -1.46875 L 7.65625 -3.53125 L 6.203125 -3.53125 C 6.117188 -3.53125 6.050781 -3.550781 6 -3.59375 C 5.945312 -3.644531 5.921875 -3.707031 5.921875 -3.78125 L 5.921875 -4.5 Z M 8.796875 -4.5 "/></g></g></g><g fill="#333033" fill-opacity="1"><g transform="translate(215.180695, 219.341045)"><g><path d="M 6.5 -1.0625 L 6.5 0 L 1.1875 0 L 1.1875 -9.359375 L 2.453125 -9.359375 L 2.453125 -1.0625 Z M 6.5 -1.0625 "/></g></g></g><g fill="#333033" fill-opacity="1"><g transform="translate(224.758095, 219.341045)"><g><path d="M 9.84375 -4.671875 C 9.84375 -3.972656 9.726562 -3.332031 9.5 -2.75 C 9.28125 -2.164062 8.96875 -1.660156 8.5625 -1.234375 C 8.164062 -0.804688 7.679688 -0.476562 7.109375 -0.25 C 6.535156 -0.0195312 5.90625 0.09375 5.21875 0.09375 C 4.53125 0.09375 3.90625 -0.0195312 3.34375 -0.25 C 2.78125 -0.476562 2.296875 -0.804688 1.890625 -1.234375 C 1.484375 -1.660156 1.164062 -2.164062 0.9375 -2.75 C 0.71875 -3.332031 0.609375 -3.972656 0.609375 -4.671875 C 0.609375 -5.378906 0.71875 -6.023438 0.9375 -6.609375 C 1.164062 -7.191406 1.484375 -7.695312 1.890625 -8.125 C 2.296875 -8.550781 2.78125 -8.878906 3.34375 -9.109375 C 3.90625 -9.347656 4.53125 -9.46875 5.21875 -9.46875 C 5.90625 -9.46875 6.535156 -9.347656 7.109375 -9.109375 C 7.679688 -8.878906 8.164062 -8.550781 8.5625 -8.125 C 8.96875 -7.695312 9.28125 -7.191406 9.5 -6.609375 C 9.726562 -6.023438 9.84375 -5.378906 9.84375 -4.671875 Z M 8.546875 -4.671875 C 8.546875 -5.242188 8.46875 -5.757812 8.3125 -6.21875 C 8.15625 -6.675781 7.929688 -7.0625 7.640625 -7.375 C 7.347656 -7.695312 7 -7.941406 6.59375 -8.109375 C 6.1875 -8.273438 5.726562 -8.359375 5.21875 -8.359375 C 4.71875 -8.359375 4.265625 -8.273438 3.859375 -8.109375 C 3.453125 -7.941406 3.101562 -7.695312 2.8125 -7.375 C 2.519531 -7.0625 2.296875 -6.675781 2.140625 -6.21875 C 1.984375 -5.757812 1.90625 -5.242188 1.90625 -4.671875 C 1.90625 -4.097656 1.984375 -3.582031 2.140625 -3.125 C 2.296875 -2.675781 2.519531 -2.289062 2.8125 -1.96875 C 3.101562 -1.65625 3.453125 -1.414062 3.859375 -1.25 C 4.265625 -1.082031 4.71875 -1 5.21875 -1 C 5.726562 -1 6.1875 -1.082031 6.59375 -1.25 C 7 -1.414062 7.347656 -1.65625 7.640625 -1.96875 C 7.929688 -2.289062 8.15625 -2.675781 8.3125 -3.125 C 8.46875 -3.582031 8.546875 -4.097656 8.546875 -4.671875 Z M 8.546875 -4.671875 "/></g></g></g><g fill="#333033" fill-opacity="1"><g transform="translate(238.082233, 219.341045)"><g><path d="M 13.328125 -9.359375 L 10.40625 0 L 9.265625 0 L 6.890625 -7.140625 C 6.867188 -7.210938 6.847656 -7.285156 6.828125 -7.359375 C 6.816406 -7.441406 6.796875 -7.523438 6.765625 -7.609375 C 6.742188 -7.523438 6.722656 -7.441406 6.703125 -7.359375 C 6.679688 -7.285156 6.660156 -7.210938 6.640625 -7.140625 L 4.265625 0 L 3.125 0 L 0.203125 -9.359375 L 1.25 -9.359375 C 1.363281 -9.359375 1.457031 -9.328125 1.53125 -9.265625 C 1.613281 -9.210938 1.664062 -9.144531 1.6875 -9.0625 L 3.625 -2.546875 C 3.644531 -2.429688 3.671875 -2.304688 3.703125 -2.171875 C 3.734375 -2.035156 3.757812 -1.894531 3.78125 -1.75 C 3.8125 -1.894531 3.84375 -2.035156 3.875 -2.171875 C 3.914062 -2.316406 3.953125 -2.441406 3.984375 -2.546875 L 6.1875 -9.0625 C 6.21875 -9.132812 6.269531 -9.203125 6.34375 -9.265625 C 6.414062 -9.328125 6.507812 -9.359375 6.625 -9.359375 L 6.984375 -9.359375 C 7.097656 -9.359375 7.191406 -9.328125 7.265625 -9.265625 C 7.335938 -9.210938 7.390625 -9.144531 7.421875 -9.0625 L 9.609375 -2.546875 C 9.648438 -2.441406 9.6875 -2.320312 9.71875 -2.1875 C 9.75 -2.050781 9.78125 -1.914062 9.8125 -1.78125 C 9.832031 -1.914062 9.851562 -2.050781 9.875 -2.1875 C 9.90625 -2.320312 9.9375 -2.441406 9.96875 -2.546875 L 11.90625 -9.0625 C 11.9375 -9.132812 11.988281 -9.203125 12.0625 -9.265625 C 12.132812 -9.328125 12.226562 -9.359375 12.34375 -9.359375 Z M 13.328125 -9.359375 "/></g></g></g><g fill="#333033" fill-opacity="1"><g transform="translate(254.474268, 219.341045)"><g><path d="M 4.703125 -3.734375 L 4.703125 0 L 3.4375 0 L 3.4375 -3.734375 L 0.015625 -9.359375 L 1.125 -9.359375 C 1.238281 -9.359375 1.328125 -9.332031 1.390625 -9.28125 C 1.453125 -9.226562 1.507812 -9.15625 1.5625 -9.0625 L 3.703125 -5.421875 C 3.785156 -5.273438 3.859375 -5.132812 3.921875 -5 C 3.984375 -4.863281 4.039062 -4.726562 4.09375 -4.59375 C 4.132812 -4.726562 4.1875 -4.863281 4.25 -5 C 4.3125 -5.132812 4.378906 -5.273438 4.453125 -5.421875 L 6.59375 -9.0625 C 6.632812 -9.132812 6.6875 -9.203125 6.75 -9.265625 C 6.820312 -9.328125 6.910156 -9.359375 7.015625 -9.359375 L 8.140625 -9.359375 Z M 4.703125 -3.734375 "/></g></g></g></svg>